<svg width="738" height="137" viewBox="0 0 738 137" fill="none" xmlns="http://www.w3.org/2000/svg">
<g clip-path="url(#clip0_207_11217)">
<path d="M207.403 123V12.4545H279.301V29.2415H227.429V59.2528H275.577V76.0398H227.429V106.213H279.733V123H207.403ZM359.808 42.8438C359.304 38.1297 357.181 34.4593 353.439 31.8324C349.732 29.2055 344.911 27.892 338.973 27.892C334.799 27.892 331.218 28.5218 328.232 29.7812C325.245 31.0407 322.96 32.75 321.376 34.9091C319.793 37.0682 318.983 39.5331 318.947 42.304C318.947 44.607 319.469 46.6042 320.513 48.2955C321.592 49.9867 323.05 51.4261 324.885 52.6136C326.72 53.7651 328.753 54.7367 330.984 55.5284C333.215 56.3201 335.464 56.9858 337.732 57.5256L348.095 60.1165C352.269 61.0881 356.282 62.4015 360.132 64.0568C364.018 65.7121 367.491 67.7992 370.55 70.3182C373.644 72.8371 376.091 75.8778 377.891 79.4403C379.69 83.0028 380.589 87.1771 380.589 91.9631C380.589 98.4403 378.934 104.144 375.624 109.074C372.313 113.968 367.527 117.8 361.266 120.571C355.04 123.306 347.501 124.673 338.649 124.673C330.049 124.673 322.582 123.342 316.249 120.679C309.951 118.016 305.021 114.13 301.459 109.02C297.932 103.91 296.025 97.6847 295.737 90.3438H315.439C315.727 94.1941 316.914 97.3968 319.001 99.9517C321.089 102.507 323.805 104.414 327.152 105.673C330.535 106.933 334.313 107.562 338.487 107.562C342.841 107.562 346.656 106.915 349.93 105.619C353.241 104.288 355.832 102.453 357.703 100.114C359.574 97.7386 360.528 94.9678 360.564 91.8011C360.528 88.9223 359.682 86.5473 358.027 84.6761C356.372 82.7689 354.051 81.1856 351.064 79.9261C348.113 78.6307 344.659 77.4792 340.7 76.4716L328.124 73.233C319.019 70.8939 311.822 67.3494 306.533 62.5994C301.279 57.8134 298.652 51.4621 298.652 43.5454C298.652 37.0322 300.415 31.3286 303.942 26.4347C307.504 21.5407 312.344 17.7443 318.462 15.0454C324.579 12.3106 331.506 10.9432 339.243 10.9432C347.088 10.9432 353.961 12.3106 359.862 15.0454C365.8 17.7443 370.46 21.5047 373.842 26.3267C377.225 31.1127 378.97 36.6184 379.078 42.8438H359.808ZM393.585 29.2415V12.4545H481.783V29.2415H447.616V123H427.752V29.2415H393.585ZM498.786 123V12.4545H540.241C548.733 12.4545 555.858 13.9299 561.616 16.8807C567.409 19.8314 571.781 23.9697 574.732 29.2954C577.719 34.5852 579.212 40.7566 579.212 47.8097C579.212 54.8987 577.701 61.0521 574.678 66.2699C571.692 71.4517 567.283 75.464 561.454 78.3068C555.624 81.1136 548.463 82.517 539.971 82.517H510.445V65.892H537.272C542.238 65.892 546.304 65.2083 549.471 63.8409C552.638 62.4375 554.977 60.4044 556.488 57.7415C558.035 55.0426 558.809 51.732 558.809 47.8097C558.809 43.8873 558.035 40.5407 556.488 37.7699C554.941 34.9631 552.584 32.84 549.417 31.4006C546.25 29.9252 542.166 29.1875 537.164 29.1875H518.812V123H498.786ZM555.894 72.9091L583.261 123H560.914L534.033 72.9091H555.894ZM611.842 123H590.467L629.384 12.4545H654.106L693.077 123H671.702L642.177 35.125H641.313L611.842 123ZM612.543 79.6562H670.839V95.7415H612.543V79.6562ZM727.663 12.4545V123H707.638V12.4545H727.663Z" fill="white"/>
<mask id="mask0_207_11217" style="mask-type:luminance" maskUnits="userSpaceOnUse" x="29" y="10" width="43" height="44">
<path d="M46.6112 10.8212L71.7083 36.492L54.9826 53.6051L29.8856 27.9343L46.6112 10.8212Z" fill="white"/>
</mask>
<g mask="url(#mask0_207_11217)">
<mask id="mask1_207_11217" style="mask-type:luminance" maskUnits="userSpaceOnUse" x="5" y="17" width="173" height="112">
<path d="M23.1114 17.2679L177.619 58.1469L159.863 128.437L5.35468 87.5581L23.1114 17.2679Z" fill="white"/>
</mask>
<g mask="url(#mask1_207_11217)">
<mask id="mask2_207_11217" style="mask-type:luminance" maskUnits="userSpaceOnUse" x="5" y="17" width="173" height="112">
<path d="M23.1113 17.2679L177.619 58.1468L159.862 128.437L5.35447 87.5582L23.1113 17.2679Z" fill="white"/>
</mask>
<g mask="url(#mask2_207_11217)">
<path d="M33.5535 30.3095L59.0124 37.0276L58.751 38.0975L33.2595 31.346L33.5535 30.3095Z" fill="white"/>
</g>
</g>
</g>
<mask id="mask3_207_11217" style="mask-type:luminance" maskUnits="userSpaceOnUse" x="21" y="10" width="51" height="53">
<path d="M46.6333 10.8154L71.6988 36.4569L46.6423 62.0971L21.5768 36.4555L46.6333 10.8154Z" fill="white"/>
</mask>
<g mask="url(#mask3_207_11217)">
<mask id="mask4_207_11217" style="mask-type:luminance" maskUnits="userSpaceOnUse" x="5" y="17" width="173" height="112">
<path d="M23.1111 17.2679L177.619 58.1469L159.862 128.437L5.35437 87.5581L23.1111 17.2679Z" fill="white"/>
</mask>
<g mask="url(#mask4_207_11217)">
<mask id="mask5_207_11217" style="mask-type:luminance" maskUnits="userSpaceOnUse" x="5" y="17" width="173" height="112">
<path d="M23.111 17.2679L177.619 58.1468L159.862 128.437L5.35417 87.5582L23.111 17.2679Z" fill="white"/>
</mask>
<g mask="url(#mask5_207_11217)">
<path d="M33.1346 31.8747L58.6607 38.5932L58.53 39.1281L33.0366 32.3762L33.1346 31.8747Z" fill="white"/>
</g>
</g>
</g>
<mask id="mask6_207_11217" style="mask-type:luminance" maskUnits="userSpaceOnUse" x="21" y="19" width="43" height="44">
<path d="M38.2932 19.3069L63.3902 44.9777L46.6646 62.0908L21.5675 36.42L38.2932 19.3069Z" fill="white"/>
</mask>
<g mask="url(#mask6_207_11217)">
<mask id="mask7_207_11217" style="mask-type:luminance" maskUnits="userSpaceOnUse" x="5" y="17" width="173" height="112">
<path d="M23.1111 17.2678L177.619 58.1469L159.862 128.437L5.35431 87.558L23.1111 17.2678Z" fill="white"/>
</mask>
<g mask="url(#mask7_207_11217)">
<mask id="mask8_207_11217" style="mask-type:luminance" maskUnits="userSpaceOnUse" x="5" y="17" width="173" height="112">
<path d="M23.111 17.2679L177.619 58.1467L159.862 128.437L5.3541 87.5582L23.111 17.2679Z" fill="white"/>
</mask>
<g mask="url(#mask8_207_11217)">
<path d="M32.7506 33.4061L58.2441 40.1571L58.1133 40.6921L32.6199 33.9411L32.7506 33.4061Z" fill="white"/>
<path d="M32.1124 36.0029L57.6059 42.7539L57.4752 43.2889L31.9817 36.5379L32.1124 36.0029Z" fill="white"/>
<path d="M31.7662 37.5656L57.2235 44.2827L56.8314 45.8874L31.3415 39.137L31.7662 37.5656Z" fill="white"/>
<path d="M31.2196 39.6634L56.6787 46.3807L56.45 47.4172L30.9582 40.6664L31.2196 39.6634Z" fill="white"/>
<path d="M30.709 41.7274L56.2006 48.4782L55.9392 49.4812L30.4149 42.7639L30.709 41.7274Z" fill="white"/>
<path d="M30.3255 43.2589L55.817 50.0096L55.5229 51.0461L30.0641 44.3288L30.3255 43.2589Z" fill="white"/>
</g>
</g>
</g>
<mask id="mask9_207_11217" style="mask-type:luminance" maskUnits="userSpaceOnUse" x="21" y="27" width="43" height="44">
<path d="M46.6956 27.8932L63.3868 44.9658L38.3586 70.5736L21.6674 53.501L46.6956 27.8932Z" fill="white"/>
</mask>
<g mask="url(#mask9_207_11217)">
<mask id="mask10_207_11217" style="mask-type:luminance" maskUnits="userSpaceOnUse" x="5" y="17" width="173" height="112">
<path d="M23.1106 17.2681L177.619 58.1472L159.862 128.437L5.35382 87.5583L23.1106 17.2681Z" fill="white"/>
</mask>
<g mask="url(#mask10_207_11217)">
<mask id="mask11_207_11217" style="mask-type:luminance" maskUnits="userSpaceOnUse" x="5" y="17" width="173" height="112">
<path d="M23.1105 17.2682L177.618 58.147L159.862 128.437L5.35362 87.5585L23.1105 17.2682Z" fill="white"/>
</mask>
<g mask="url(#mask11_207_11217)">
<path d="M29.781 45.356L55.273 52.1076L55.0443 53.144L29.5523 46.3924L29.781 45.356Z" fill="white"/>
</g>
</g>
</g>
<mask id="mask12_207_11217" style="mask-type:luminance" maskUnits="userSpaceOnUse" x="21" y="36" width="43" height="44">
<path d="M38.3897 36.3757L63.4868 62.0465L46.7612 79.1596L21.6641 53.4888L38.3897 36.3757Z" fill="white"/>
</mask>
<g mask="url(#mask12_207_11217)">
<mask id="mask13_207_11217" style="mask-type:luminance" maskUnits="userSpaceOnUse" x="5" y="17" width="173" height="112">
<path d="M23.1108 17.2674L177.619 58.1465L159.862 128.437L5.35407 87.5577L23.1108 17.2674Z" fill="white"/>
</mask>
<g mask="url(#mask13_207_11217)">
<mask id="mask14_207_11217" style="mask-type:luminance" maskUnits="userSpaceOnUse" x="5" y="17" width="173" height="112">
<path d="M23.1107 17.2675L177.619 58.1463L159.862 128.437L5.35386 87.5578L23.1107 17.2675Z" fill="white"/>
</mask>
<g mask="url(#mask14_207_11217)">
<path d="M29.2703 47.4192L54.7623 54.17L54.5336 55.2065L29.0416 48.4557L29.2703 47.4192Z" fill="white"/>
<path d="M28.7901 49.5174L54.2507 56.235L54.12 56.77L28.6267 50.019L28.7901 49.5174Z" fill="white"/>
<path d="M28.5059 50.5476L53.9961 57.2982L53.604 58.8361L28.1138 52.0856L28.5059 50.5476Z" fill="white"/>
<path d="M27.863 53.1455L53.3563 59.8965L53.1929 60.3981L27.7323 53.6805L27.863 53.1455Z" fill="white"/>
<path d="M27.6115 54.2096L53.1014 60.8932L52.7094 62.498L27.2194 55.7475L27.6115 54.2096Z" fill="white"/>
<path d="M27.103 56.2723L52.5589 62.9891L52.0688 65.0953L26.5802 58.345L27.103 56.2723Z" fill="white"/>
</g>
</g>
</g>
<mask id="mask15_207_11217" style="mask-type:luminance" maskUnits="userSpaceOnUse" x="13" y="36" width="51" height="52">
<path d="M38.4119 36.3699L63.4774 62.0115L38.4209 87.6516L13.3553 62.01L38.4119 36.3699Z" fill="white"/>
</mask>
<g mask="url(#mask15_207_11217)">
<mask id="mask16_207_11217" style="mask-type:luminance" maskUnits="userSpaceOnUse" x="5" y="17" width="173" height="112">
<path d="M23.1109 17.2674L177.619 58.1465L159.862 128.437L5.35413 87.5577L23.1109 17.2674Z" fill="white"/>
</mask>
<g mask="url(#mask16_207_11217)">
<mask id="mask17_207_11217" style="mask-type:luminance" maskUnits="userSpaceOnUse" x="5" y="17" width="173" height="112">
<path d="M23.1108 17.2675L177.619 58.1463L159.862 128.437L5.35392 87.5578L23.1108 17.2675Z" fill="white"/>
</mask>
<g mask="url(#mask17_207_11217)">
<path d="M26.4624 58.8694L51.9199 65.5872L51.5606 67.1585L26.0704 60.4073L26.4624 58.8694Z" fill="white"/>
</g>
</g>
</g>
<mask id="mask18_207_11217" style="mask-type:luminance" maskUnits="userSpaceOnUse" x="13" y="44" width="43" height="44">
<path d="M30.0713 44.8619L55.1684 70.5327L38.4427 87.6458L13.3456 61.975L30.0713 44.8619Z" fill="white"/>
</mask>
<g mask="url(#mask18_207_11217)">
<mask id="mask19_207_11217" style="mask-type:luminance" maskUnits="userSpaceOnUse" x="5" y="17" width="173" height="112">
<path d="M23.1106 17.268L177.619 58.147L159.862 128.437L5.35382 87.5582L23.1106 17.268Z" fill="white"/>
</mask>
<g mask="url(#mask19_207_11217)">
<mask id="mask20_207_11217" style="mask-type:luminance" maskUnits="userSpaceOnUse" x="5" y="17" width="173" height="112">
<path d="M23.1105 17.2681L177.618 58.1469L159.862 128.437L5.35362 87.5583L23.1105 17.2681Z" fill="white"/>
</mask>
<g mask="url(#mask20_207_11217)">
<path d="M25.9448 60.9361L51.4055 67.6538L51.2747 68.1888L25.7814 61.4376L25.9448 60.9361Z" fill="white"/>
<path d="M25.4364 62.9993L50.928 69.7502L50.6339 70.7867L25.1423 64.0358L25.4364 62.9993Z" fill="white"/>
<path d="M25.0181 64.5649L50.5116 71.316L50.4136 71.8176L24.8874 65.0999L25.0181 64.5649Z" fill="white"/>
<path d="M24.7993 65.5954L50.2566 72.3126L49.8645 73.9173L24.3746 67.1667L24.7993 65.5954Z" fill="white"/>
<path d="M24.2532 67.6932L49.745 74.4441L49.4836 75.4471L23.9917 68.6962L24.2532 67.6932Z" fill="white"/>
</g>
</g>
</g>
<mask id="mask21_207_11217" style="mask-type:luminance" maskUnits="userSpaceOnUse" x="21" y="53" width="43" height="44">
<path d="M38.4868 53.4449L63.5838 79.1157L46.8582 96.2288L21.7611 70.558L38.4868 53.4449Z" fill="white"/>
</mask>
<g mask="url(#mask21_207_11217)">
<mask id="mask22_207_11217" style="mask-type:luminance" maskUnits="userSpaceOnUse" x="5" y="17" width="173" height="112">
<path d="M23.1108 17.2682L177.619 58.1472L159.862 128.437L5.35407 87.5584L23.1108 17.2682Z" fill="white"/>
</mask>
<g mask="url(#mask22_207_11217)">
<mask id="mask23_207_11217" style="mask-type:luminance" maskUnits="userSpaceOnUse" x="5" y="17" width="173" height="112">
<path d="M23.1107 17.2683L177.619 58.1471L159.862 128.437L5.35386 87.5585L23.1107 17.2683Z" fill="white"/>
</mask>
<g mask="url(#mask23_207_11217)">
<path d="M23.6131 70.2902L49.0736 77.0087L48.9756 77.5102L23.4824 70.8252L23.6131 70.2902Z" fill="white"/>
</g>
</g>
</g>
<mask id="mask24_207_11217" style="mask-type:luminance" maskUnits="userSpaceOnUse" x="13" y="53" width="51" height="52">
<path d="M38.5087 53.439L63.5743 79.0805L38.5177 104.721L13.4522 79.0791L38.5087 53.439Z" fill="white"/>
</mask>
<g mask="url(#mask24_207_11217)">
<mask id="mask25_207_11217" style="mask-type:luminance" maskUnits="userSpaceOnUse" x="5" y="17" width="173" height="112">
<path d="M23.1107 17.2681L177.619 58.1472L159.862 128.437L5.35395 87.5583L23.1107 17.2681Z" fill="white"/>
</mask>
<g mask="url(#mask25_207_11217)">
<mask id="mask26_207_11217" style="mask-type:luminance" maskUnits="userSpaceOnUse" x="5" y="17" width="173" height="112">
<path d="M23.1106 17.2682L177.619 58.147L159.862 128.437L5.35374 87.5585L23.1106 17.2682Z" fill="white"/>
</mask>
<g mask="url(#mask26_207_11217)">
<path d="M23.3642 71.2859L48.8525 78.0368L48.2972 80.1429L22.8088 73.3921L23.3642 71.2859Z" fill="white"/>
</g>
</g>
</g>
<mask id="mask27_207_11217" style="mask-type:luminance" maskUnits="userSpaceOnUse" x="13" y="61" width="43" height="44">
<path d="M30.1691 61.9306L55.2662 87.6014L38.5406 104.714L13.4435 79.0437L30.1691 61.9306Z" fill="white"/>
</mask>
<g mask="url(#mask27_207_11217)">
<mask id="mask28_207_11217" style="mask-type:luminance" maskUnits="userSpaceOnUse" x="5" y="17" width="173" height="112">
<path d="M23.1111 17.2679L177.619 58.147L159.862 128.437L5.35431 87.5581L23.1111 17.2679Z" fill="white"/>
</mask>
<g mask="url(#mask28_207_11217)">
<mask id="mask29_207_11217" style="mask-type:luminance" maskUnits="userSpaceOnUse" x="5" y="17" width="173" height="112">
<path d="M23.111 17.268L177.619 58.1468L159.862 128.437L5.3541 87.5583L23.111 17.268Z" fill="white"/>
</mask>
<g mask="url(#mask29_207_11217)">
<path d="M22.7233 73.8823L48.2133 80.6328L47.7885 82.2042L22.3312 75.4871L22.7233 73.8823Z" fill="white"/>
<path d="M22.1774 75.9814L47.6695 82.7322L47.4407 83.7687L21.9487 77.0178L22.1774 75.9814Z" fill="white"/>
<path d="M21.827 77.546L47.2859 84.2634L47.0245 85.3333L21.5329 78.5825L21.827 77.546Z" fill="white"/>
<path d="M21.316 79.6103L46.8076 86.3611L46.5135 87.3975L21.0219 80.6467L21.316 79.6103Z" fill="white"/>
<path d="M20.7718 81.7068L46.2636 88.4576L46.0022 89.4607L20.5103 82.7098L20.7718 81.7068Z" fill="white"/>
</g>
</g>
</g>
<mask id="mask30_207_11217" style="mask-type:luminance" maskUnits="userSpaceOnUse" x="-29" y="-49" width="235" height="240">
<path d="M71.9216 -48.9216L205.723 87.9467L105.407 190.593L-28.3943 53.7244L71.9216 -48.9216Z" fill="white"/>
</mask>
<g mask="url(#mask30_207_11217)">
<mask id="mask31_207_11217" style="mask-type:luminance" maskUnits="userSpaceOnUse" x="5" y="17" width="173" height="112">
<path d="M23.111 17.2676L177.619 58.1467L159.862 128.437L5.35424 87.5578L23.111 17.2676Z" fill="white"/>
</mask>
<g mask="url(#mask31_207_11217)">
<mask id="mask32_207_11217" style="mask-type:luminance" maskUnits="userSpaceOnUse" x="5" y="17" width="173" height="112">
<path d="M23.1109 17.2677L177.619 58.1465L159.862 128.437L5.35404 87.558L23.1109 17.2677Z" fill="white"/>
</mask>
<g mask="url(#mask32_207_11217)">
<path d="M158.195 127.998L5.45136 87.5867L7.60567 79.0343L8.29135 79.2681C10.6096 79.8359 12.9603 78.4326 13.5479 76.0941C14.1354 73.7555 12.7313 71.3169 10.4457 70.7158L9.75998 70.5488L11.3594 64.1679L12.0451 64.3349C14.3633 64.9695 16.7141 63.5662 17.3016 61.1608C17.8891 58.8223 16.5176 56.4171 14.232 55.8159L13.5463 55.649L15.1458 49.2681L15.8314 49.4351C18.117 50.0362 20.4678 48.633 21.088 46.261C21.6755 43.9225 20.304 41.5173 17.9857 40.8827L17.3001 40.7157L18.8995 34.3349L19.6178 34.5352C21.9034 35.1364 24.2541 33.7331 24.8417 31.3946C25.4619 29.0226 24.0251 26.6174 21.7395 26.0163L21.0538 25.8493L23.2081 17.2969L175.952 57.7079L173.797 66.2603L173.112 66.0265C170.826 65.4253 168.443 66.862 167.855 69.2005C167.267 71.5391 168.639 73.9443 170.957 74.5788L171.643 74.7458L170.044 81.1267L169.358 80.9597C167.04 80.3251 164.689 81.7284 164.101 84.1338C163.514 86.4723 164.885 88.8775 167.171 89.4787L167.857 89.6456L166.257 96.0265L165.571 95.8595C163.286 95.2584 160.935 96.6616 160.348 99.0002C159.727 101.372 161.132 103.744 163.417 104.345L164.135 104.545L162.503 110.96L161.818 110.726C159.532 110.125 157.149 111.561 156.561 113.9C155.974 116.239 157.345 118.644 159.663 119.278L160.349 119.445L158.195 127.998ZM7.18177 86.551L157.182 126.227L158.619 120.481C155.974 119.379 154.472 116.439 155.19 113.566C155.941 110.66 158.65 108.822 161.458 109.223L162.372 105.548C159.728 104.512 158.193 101.539 158.944 98.6328C159.662 95.7598 162.437 93.9222 165.245 94.3228L166.159 90.648C163.514 89.6126 161.979 86.6394 162.73 83.733C163.448 80.8599 166.158 79.0223 168.999 79.3896L169.945 75.7481C167.268 74.6793 165.766 71.7396 166.516 68.8331C167.234 65.9601 169.944 64.1225 172.785 64.4898L174.221 58.7436L24.2204 19.0674L22.7842 24.8135C25.4616 25.8824 26.9312 28.8555 26.2131 31.7285C25.495 34.6016 22.7524 36.4726 19.9444 36.0719L19.0305 39.7468C21.6753 40.7822 23.2101 43.7553 22.4593 46.6618C21.7412 49.5348 18.9987 51.339 16.1581 50.9718L15.2441 54.6466C17.8889 55.682 19.4237 58.6552 18.7056 61.5282C17.9549 64.4347 15.245 66.2723 12.4043 65.905L11.4904 69.513C14.1352 70.6153 15.6373 73.555 14.9192 76.428C14.1685 79.3345 11.4586 81.1721 8.65062 80.7714L7.18177 86.551Z" fill="white"/>
</g>
</g>
</g>
<mask id="mask33_207_11217" style="mask-type:luminance" maskUnits="userSpaceOnUse" x="21" y="19" width="85" height="86">
<path d="M71.8535 19.4758L105.236 53.621L55.1794 104.837L21.797 70.6913L71.8535 19.4758Z" fill="white"/>
</mask>
<g mask="url(#mask33_207_11217)">
<mask id="mask34_207_11217" style="mask-type:luminance" maskUnits="userSpaceOnUse" x="5" y="17" width="173" height="112">
<path d="M23.1116 17.2674L177.62 58.1465L159.863 128.437L5.3548 87.5577L23.1116 17.2674Z" fill="white"/>
</mask>
<g mask="url(#mask34_207_11217)">
<mask id="mask35_207_11217" style="mask-type:luminance" maskUnits="userSpaceOnUse" x="5" y="17" width="173" height="112">
<path d="M23.1115 17.2675L177.619 58.1463L159.863 128.437L5.35459 87.5578L23.1115 17.2675Z" fill="white"/>
</mask>
<g mask="url(#mask35_207_11217)">
<path d="M69.9444 30.3794L71.313 30.7126L54.0153 99.214L52.6142 98.8474L69.9444 30.3794Z" fill="white"/>
</g>
</g>
</g>
<rect x="87" y="12" width="78" height="25" fill="white"/>
<rect x="100" y="55" width="61" height="19" fill="white"/>
<rect x="165" y="37" width="61" height="25" transform="rotate(90 165 37)" fill="white"/>
<rect x="87" y="98" width="78" height="25" fill="white"/>
<rect x="3" y="12" width="78" height="25" fill="white"/>
<rect x="3" y="98" width="78" height="25" fill="white"/>
<path d="M2.58239 98.3827L70.2756 55.308L70.2756 73.7696L2.58346 116.846L2.58239 98.3827Z" fill="white"/>
<path d="M2.58328 18.3846L70.2756 55.3077L70.2756 73.7692L2.58328 36.8462L2.58328 18.3846Z" fill="white"/>
</g>
<defs>
<clipPath id="clip0_207_11217">
<rect width="738" height="137" fill="white"/>
</clipPath>
</defs>
</svg>
