<svg width="181" height="64" viewBox="0 0 181 64" fill="none" xmlns="http://www.w3.org/2000/svg">
<rect width="181" height="64" fill="white"/>
<path d="M4 24.8235C4 21.6073 6.60728 19 9.82353 19H17.5882C20.8045 19 23.4118 21.6073 23.4118 24.8235V32.5882C23.4118 35.8045 20.8045 38.4118 17.5882 38.4118H9.82353C6.60728 38.4118 4 35.8045 4 32.5882V24.8235Z" fill="#C8102E"/>
<path d="M17.5882 19H37V38.4118H17.5882V19Z" fill="#C8102E"/>
<path d="M17.5882 38.4118C17.5882 35.1955 20.1955 32.5882 23.4118 32.5882H31.1765C34.3927 32.5882 37 35.1955 37 38.4118V46.1765C37 49.3927 34.3927 52 31.1765 52H23.4118C20.1955 52 17.5882 49.3927 17.5882 46.1765V38.4118Z" fill="#C8102E"/>
<path d="M4 32.5882H23.4118V52H4V32.5882Z" fill="#C8102E"/>
<g clip-path="url(#clip0_33_2)">
<path d="M25.9365 25.6185L24.1819 45.131C24.1419 45.5753 23.8181 45.8914 23.4765 45.8606L20.86 45.6253C20.5184 45.5946 20.2562 45.2259 20.2961 44.7816C20.3916 43.7204 19.7628 42.7757 18.8727 42.6957C17.9826 42.6156 17.1954 43.433 17.1 44.4942C17.06 44.9385 16.7362 45.2545 16.3946 45.2238L13.7781 44.9885C13.4365 44.9578 13.1743 44.589 13.2143 44.1447L14.969 24.6322C15.0089 24.1879 15.3327 23.8718 15.6743 23.9026L18.2926 24.138C18.6268 24.1681 18.8864 24.522 18.8583 24.9572C18.7784 26.1959 19.4982 26.8986 20.2868 26.9702C21.0754 27.0419 21.909 26.4803 22.0517 25.2443C22.1017 24.8112 22.4203 24.5092 22.7545 24.5393L25.3728 24.7747C25.7143 24.8055 25.9765 25.1742 25.9365 25.6185Z" fill="#FCFCFC" stroke="black" stroke-width="0.1"/>
<path d="M18.2926 24.138C18.6268 24.1681 18.8864 24.5221 18.8583 24.9572C18.7782 26.1987 19.4982 26.9001 20.287 26.9703C21.0756 27.0404 21.9093 26.4775 22.0516 25.2444C22.1016 24.8112 22.4202 24.5092 22.7544 24.5393L25.3727 24.7747C25.7143 24.8055 25.9765 25.1742 25.9365 25.6185L24.8671 37.5107L13.8995 36.5244L14.9689 24.6322C15.0089 24.1879 15.3327 23.8719 15.6743 23.9026L18.2926 24.138Z" fill="white" stroke="black" stroke-width="0.1"/>
<path d="M13.8452 36.5696L13.6948 38.2425L24.7619 39.2377L24.9123 37.5648L13.8452 36.5696Z" fill="black"/>
<path d="M19.5011 29.2957L19.0321 34.5108C18.9906 34.9728 18.6505 35.3198 18.2725 35.2858C17.8946 35.2518 17.6218 34.8497 17.6633 34.3877L18.1323 29.1726C18.1738 28.7106 18.514 28.3636 18.8919 28.3976C19.2699 28.4316 19.5427 28.8337 19.5011 29.2957Z" fill="#303030"/>
<path d="M22.0139 29.5216L21.5449 34.7368C21.5034 35.1987 21.1633 35.5457 20.7853 35.5117C20.4073 35.4777 20.1345 35.0757 20.1761 34.6137L20.6451 29.3985C20.6866 28.9366 21.0267 28.5896 21.4047 28.6236C21.7827 28.6576 22.0554 29.0597 22.0139 29.5216Z" fill="#303030"/>
</g>
<g clip-path="url(#clip1_33_2)">
<path d="M32.3415 30.3234L22.2469 47.1138C22.0171 47.4961 21.5878 47.6392 21.2939 47.4625L19.0424 46.1088C18.7485 45.9321 18.6735 45.4859 18.9033 45.1036C19.4523 44.1905 19.2988 43.0661 18.5329 42.6056C17.7669 42.1451 16.702 42.537 16.153 43.4501C15.9232 43.8324 15.4939 43.9754 15.1999 43.7987L12.9484 42.4451C12.6545 42.2684 12.5795 41.8222 12.8094 41.4399L22.9039 24.6494C23.1337 24.2671 23.563 24.1241 23.857 24.3008L26.11 25.6553C26.3976 25.8282 26.4767 26.26 26.2615 26.6392C25.649 27.7189 25.99 28.6653 26.6682 29.0739C27.3465 29.4825 28.3416 29.341 29.0094 28.2913C29.2434 27.9234 29.6618 27.7908 29.9494 27.9637L32.2024 29.3182C32.4963 29.4949 32.5713 29.9411 32.3415 30.3234Z" fill="#FCFCFC" stroke="black" stroke-width="0.1"/>
<path d="M26.1099 25.6553C26.3975 25.8282 26.4766 26.2601 26.2615 26.6393C25.6476 27.7214 25.9893 28.6666 26.6683 29.074C27.3473 29.4813 28.3431 29.3386 29.0093 28.2913C29.2433 27.9234 29.6618 27.7907 29.9494 27.9636L32.2024 29.3181C32.4963 29.4949 32.5713 29.9411 32.3414 30.3234L26.1892 40.5566L16.7516 34.8826L22.9039 24.6495C23.1337 24.2671 23.563 24.1241 23.857 24.3008L26.1099 25.6553Z" fill="white" stroke="black" stroke-width="0.1"/>
<path d="M16.6831 34.8996L15.8176 36.3391L25.3407 42.0645L26.2062 40.6249L16.6831 34.8996Z" fill="black"/>
<path d="M24.9464 30.8233L22.2485 35.3109C22.0095 35.7084 21.552 35.8722 21.2268 35.6766C20.9015 35.4811 20.8316 35.0003 21.0706 34.6028L23.7686 30.1152C24.0076 29.7177 24.465 29.5539 24.7903 29.7494C25.1155 29.945 25.1854 30.4258 24.9464 30.8233Z" fill="#303030"/>
<path d="M27.1086 32.1232L24.4107 36.6108C24.1717 37.0083 23.7142 37.1721 23.389 36.9766C23.0637 36.781 22.9938 36.3002 23.2328 35.9027L25.9308 31.4151C26.1698 31.0176 26.6272 30.8538 26.9525 31.0494C27.2777 31.2449 27.3476 31.7257 27.1086 32.1232Z" fill="#303030"/>
</g>
<path d="M56.7817 26.5439V29.3271H48.0415V33.7217H56.3667V36.6147H48.0049V41.1924H56.9526V44H44.8311V26.5439H56.7817ZM59.6382 43.2676V40.3379C61.3879 40.9889 63.3654 41.3145 65.5708 41.3145C68.2482 41.3145 69.5869 40.4193 69.5869 38.6289C69.5869 37.3268 68.765 36.6758 67.1211 36.6758H64.3867C60.8141 36.6758 59.0278 35.0482 59.0278 31.793C59.0278 28.2122 61.571 26.4219 66.6572 26.4219C68.6104 26.4219 70.4618 26.7067 72.2114 27.2764V30.2061C70.4618 29.555 68.6104 29.2295 66.6572 29.2295C63.7275 29.2295 62.2627 30.084 62.2627 31.793C62.2627 33.0951 62.9707 33.7461 64.3867 33.7461H67.1211C70.9215 33.7461 72.8218 35.3737 72.8218 38.6289C72.8218 42.291 70.4048 44.1221 65.5708 44.1221C63.3654 44.1221 61.3879 43.8372 59.6382 43.2676ZM86.9819 26.5439V29.3516H81.9771V44H78.7422V29.3516H73.7373V26.5439H86.9819ZM88.8252 43.9756V26.5439H96.7598C100.324 26.5439 102.106 28.1024 102.106 31.2192C102.106 33.327 100.719 35.0726 97.9438 36.4561L103.474 44H99.3965L94.0864 36.395V34.918C97.1789 34.389 98.7251 33.1886 98.7251 31.3169C98.7251 30.0311 98.0008 29.3882 96.5522 29.3882H92.1211V43.9756H88.8252ZM106.806 44H103.486L110.896 26.5439H114.375L121.943 44H118.464L116.474 39.2393H110.676L111.787 36.4316H115.302L112.556 29.8765L106.806 44ZM127.314 26.5439V44H124.079V26.5439H127.314ZM133.613 41.0093V44H130.378V41.0093H133.613Z" fill="black"/>
<path d="M136.677 44V26.5439H140.034L145.954 39.7886L151.752 26.5439H154.987V44H151.997V31.8418L147.26 44H144.501L139.667 31.8418V44H136.677ZM170.6 26.5439V29.3271H161.86V33.7217H170.185V36.6147H161.823V41.1924H170.771V44H158.649V26.5439H170.6Z" fill="#C8102E"/>
<defs>
<clipPath id="clip0_33_2">
<rect width="21.271" height="17.4035" fill="white" transform="translate(9.95602 44.695) rotate(-84.8614)"/>
</clipPath>
<clipPath id="clip1_33_2">
<rect width="21.271" height="17.4035" fill="white" transform="translate(9.63766 40.513) rotate(-58.9854)"/>
</clipPath>
</defs>
</svg>
